<?xml version="1.0" encoding="UTF-8"?>
<svg width="25px" height="19px" viewBox="0 0 25 19" version="1.1" xmlns="http://www.w3.org/2000/svg" xmlns:xlink="http://www.w3.org/1999/xlink">
    <title>Users management</title>
    <g id="Work-/-Chaos-Area" stroke="none" stroke-width="1" fill="none" fill-rule="evenodd">
        <g id="GA/SOC/DRW/General/Dashboard--AccesoUsuarios/OPTION1" transform="translate(-21.000000, -916.000000)" fill="#FFFFFF" fill-rule="nonzero">
            <path d="M32.2109375,925.304688 C32.3411458,924.888021 32.484375,924.497396 32.640625,924.132812 C32.3802083,924.054688 32.1328125,923.94401 31.8984375,923.800781 C31.6640625,923.657552 31.4557292,923.494792 31.2734375,923.3125 C31.0911458,923.130208 30.9348958,922.921875 30.8046875,922.6875 C30.6744792,922.453125 30.5703125,922.205729 30.4921875,921.945312 C30.4140625,921.684896 30.375,921.411458 30.375,921.125 C30.375,920.265625 30.6809896,919.529948 31.2929688,918.917969 C31.9049479,918.30599 32.640625,918 33.5,918 C34.203125,918 34.828125,918.214844 35.375,918.644531 C35.921875,919.074219 36.2994792,919.614583 36.5078125,920.265625 C36.8984375,920.083333 37.2890625,919.940104 37.6796875,919.835938 C37.3932292,918.950521 36.8658854,918.214844 36.0976563,917.628906 C35.3294271,917.042969 34.4635417,916.75 33.5,916.75 C32.3020833,916.75 31.2734375,917.179688 30.4140625,918.039062 C29.5546875,918.898438 29.125,919.927083 29.125,921.125 C29.125,922.088542 29.4179688,922.954427 30.0039063,923.722656 C30.5898438,924.490885 31.3255208,925.018229 32.2109375,925.304688 Z M24.75,924.25 C25.609375,924.25 26.3385417,923.950521 26.9375,923.351562 C27.5625,922.726562 27.875,921.984375 27.875,921.125 C27.875,920.265625 27.5690104,919.529948 26.9570313,918.917969 C26.3450521,918.30599 25.609375,918 24.75,918 C23.890625,918 23.1549479,918.30599 22.5429688,918.917969 C21.9309896,919.529948 21.625,920.265625 21.625,921.125 C21.625,921.984375 21.9309896,922.720052 22.5429688,923.332031 C23.1549479,923.94401 23.890625,924.25 24.75,924.25 Z M24.75,923 C24.2291667,923 23.7864583,922.817708 23.421875,922.453125 C23.0572917,922.088542 22.875,921.645833 22.875,921.125 C22.875,920.604167 23.0572917,920.161458 23.421875,919.796875 C23.7864583,919.432292 24.2291667,919.25 24.75,919.25 C25.2708333,919.25 25.7135417,919.432292 26.078125,919.796875 C26.4427083,920.161458 26.625,920.604167 26.625,921.125 C26.625,921.645833 26.4427083,922.088542 26.078125,922.453125 C25.7135417,922.817708 25.2708333,923 24.75,923 Z M39.75,933.859375 C40.2447917,933.859375 40.7135417,933.807292 41.15625,933.703125 C41.390625,933.677083 41.5729167,933.579427 41.703125,933.410156 C41.8333333,933.240885 41.8984375,933.052083 41.8984375,932.84375 L41.8984375,932.84375 L41.8984375,932.101562 C42.1848958,931.971354 42.4713542,931.802083 42.7578125,931.59375 L42.7578125,931.59375 L43.3828125,931.945312 C43.7994792,932.205729 44.1770833,932.153646 44.515625,931.789062 C45.1927083,931.085938 45.6744792,930.265625 45.9609375,929.328125 C46.1171875,928.859375 45.9739583,928.494792 45.53125,928.234375 L45.53125,928.234375 L44.90625,927.882812 C44.9322917,927.544271 44.9322917,927.205729 44.90625,926.867188 L44.90625,926.867188 L45.53125,926.515625 C45.9739583,926.255208 46.1171875,925.903646 45.9609375,925.460938 C45.6744792,924.523438 45.1927083,923.690104 44.515625,922.960938 C44.203125,922.596354 43.8255208,922.544271 43.3828125,922.804688 L43.3828125,922.804688 L42.7578125,923.15625 C42.4713542,922.973958 42.1848958,922.817708 41.8984375,922.6875 L41.8984375,922.6875 L41.8984375,921.90625 C41.8984375,921.4375 41.6510417,921.151042 41.15625,921.046875 C40.21875,920.838542 39.2682292,920.838542 38.3046875,921.046875 C37.8359375,921.151042 37.6015625,921.4375 37.6015625,921.90625 L37.6015625,921.90625 L37.6015625,922.6875 C37.2890625,922.817708 37.0026042,922.973958 36.7421875,923.15625 L36.7421875,923.15625 L36.078125,922.804688 C35.6614583,922.544271 35.296875,922.596354 34.984375,922.960938 C34.3072917,923.690104 33.8255208,924.523438 33.5390625,925.460938 C33.3828125,925.903646 33.5260417,926.255208 33.96875,926.515625 L33.96875,926.515625 L34.59375,926.867188 C34.5677083,927.205729 34.5677083,927.544271 34.59375,927.882812 L34.59375,927.882812 L33.9296875,928.234375 C33.5130208,928.494792 33.3828125,928.859375 33.5390625,929.328125 C33.8255208,930.265625 34.3072917,931.085938 34.984375,931.789062 C35.296875,932.153646 35.6614583,932.205729 36.078125,931.945312 L36.078125,931.945312 L36.7421875,931.59375 C37.0286458,931.802083 37.3151042,931.971354 37.6015625,932.101562 L37.6015625,932.101562 L37.6015625,932.84375 C37.6015625,933.3125 37.8359375,933.598958 38.3046875,933.703125 C38.7734375,933.807292 39.2552083,933.859375 39.75,933.859375 Z M40.6484375,932.53125 C40.0494792,932.635417 39.4505208,932.635417 38.8515625,932.53125 L38.8515625,932.53125 L38.8515625,931.203125 C38.3307292,931.020833 37.9726563,930.877604 37.7773438,930.773438 C37.5820313,930.669271 37.2760417,930.434896 36.859375,930.070312 L36.859375,930.070312 L35.7265625,930.734375 C35.3359375,930.265625 35.0364583,929.744792 34.828125,929.171875 L34.828125,929.171875 L35.9609375,928.546875 C35.8828125,928 35.8372396,927.615885 35.8242188,927.394531 C35.8111979,927.173177 35.8567708,926.776042 35.9609375,926.203125 L35.9609375,926.203125 L34.828125,925.578125 C35.0364583,925.005208 35.3359375,924.484375 35.7265625,924.015625 L35.7265625,924.015625 L36.859375,924.679688 C37.171875,924.419271 37.40625,924.236979 37.5625,924.132812 C37.71875,924.028646 37.8815104,923.9375 38.0507813,923.859375 C38.2200521,923.78125 38.4869792,923.677083 38.8515625,923.546875 L38.8515625,923.546875 L38.8515625,922.21875 C39.4505208,922.114583 40.0494792,922.114583 40.6484375,922.21875 L40.6484375,922.21875 L40.6484375,923.546875 C41.1692708,923.729167 41.5273438,923.872396 41.7226563,923.976562 C41.9179688,924.080729 42.2239583,924.315104 42.640625,924.679688 L42.640625,924.679688 L43.7734375,924.015625 C44.1640625,924.484375 44.4635417,925.005208 44.671875,925.578125 L44.671875,925.578125 L43.5390625,926.203125 C43.6171875,926.75 43.6627604,927.134115 43.6757813,927.355469 C43.6888021,927.576823 43.6432292,927.973958 43.5390625,928.546875 L43.5390625,928.546875 L44.671875,929.171875 C44.4635417,929.770833 44.1640625,930.291667 43.7734375,930.734375 L43.7734375,930.734375 L42.640625,930.070312 C42.2239583,930.434896 41.9179688,930.669271 41.7226563,930.773438 C41.5273438,930.877604 41.1692708,931.020833 40.6484375,931.203125 L40.6484375,931.203125 L40.6484375,932.53125 Z M39.75,929.875 C40.453125,929.875 41.0455729,929.634115 41.5273438,929.152344 C42.0091146,928.670573 42.25,928.078125 42.25,927.375 C42.25,926.671875 42.0091146,926.079427 41.5273438,925.597656 C41.0455729,925.115885 40.453125,924.875 39.75,924.875 C39.046875,924.875 38.4479167,925.122396 37.953125,925.617188 C37.484375,926.085938 37.25,926.671875 37.25,927.375 C37.25,927.817708 37.3606771,928.234375 37.5820313,928.625 C37.8033854,929.015625 38.1028646,929.321615 38.4804688,929.542969 C38.8580729,929.764323 39.28125,929.875 39.75,929.875 Z M21.625,929.25 C21.8072917,929.25 21.9570313,929.191406 22.0742188,929.074219 C22.1914063,928.957031 22.25,928.807292 22.25,928.625 C22.25,928.104167 22.4192708,927.661458 22.7578125,927.296875 C23.0963542,926.932292 23.5,926.75 23.96875,926.75 L23.96875,926.75 L25.53125,926.75 C25.7395833,926.75 25.9479167,926.789062 26.15625,926.867188 C26.4427083,926.554688 26.7682292,926.268229 27.1328125,926.007812 C26.6380208,925.669271 26.1041667,925.5 25.53125,925.5 L25.53125,925.5 L23.96875,925.5 C23.1614583,925.5 22.4648438,925.80599 21.8789063,926.417969 C21.2929688,927.029948 21,927.765625 21,928.625 C21,928.807292 21.0585938,928.957031 21.1757813,929.074219 C21.2929688,929.191406 21.4427083,929.25 21.625,929.25 Z M39.75,928.625 C39.4114583,928.625 39.1119792,928.507812 38.8515625,928.273438 C38.6171875,928.013021 38.5,927.713542 38.5,927.375 C38.5,927.036458 38.6236979,926.74349 38.8710938,926.496094 C39.1184896,926.248698 39.4114583,926.125 39.75,926.125 C40.0885417,926.125 40.3815104,926.248698 40.6289063,926.496094 C40.8763021,926.74349 41,927.036458 41,927.375 C41,927.713542 40.8763021,928.00651 40.6289063,928.253906 C40.3815104,928.501302 40.0885417,928.625 39.75,928.625 Z M36.0390625,934.25 C35.4140625,933.911458 34.8411458,933.494792 34.3203125,933 L34.3203125,933 L27.875,933 C27.6927083,933 27.5429688,932.941406 27.4257813,932.824219 C27.3085938,932.707031 27.25,932.557292 27.25,932.375 L27.25,932.375 L27.25,930.617188 C27.25,929.966146 27.4322917,929.367188 27.796875,928.820312 C28.3697917,927.960938 29.2291667,927.53125 30.375,927.53125 C30.5833333,927.53125 31.1041667,927.622396 31.9375,927.804688 C31.9375,927.335938 31.9505208,926.919271 31.9765625,926.554688 C31.3255208,926.372396 30.7916667,926.28125 30.375,926.28125 C28.7864583,926.28125 27.5885417,926.893229 26.78125,928.117188 C26.2604167,928.872396 26,929.705729 26,930.617188 L26,930.617188 L26,932.375 C26,932.895833 26.1822917,933.338542 26.546875,933.703125 C26.9114583,934.067708 27.3541667,934.25 27.875,934.25 L27.875,934.25 L36.0390625,934.25 Z" id=""></path>
        </g>
    </g>
</svg>